<mxfile host="app.diagrams.net" modified="2023-05-28T16:08:27.223Z" agent="Mozilla/5.0 (Windows NT 10.0; Win64; x64) AppleWebKit/537.36 (KHTML, like Gecko) Chrome/113.0.0.0 Safari/537.36" version="21.3.4" etag="P48FAIEMuUBcLPsFk8TW" type="github">
  <diagram name="Pagina-1" id="pzEoay5lFOoF7hJQJck_">
    <mxGraphModel>
      <root>
        <mxCell id="0" />
        <mxCell id="1" parent="0" />
      </root>
    </mxGraphModel>
  </diagram>
</mxfile>
